<?xml version="1.0" standalone="no"?>
<!DOCTYPE svg PUBLIC "-//W3C//DTD SVG 20010904//EN"
 "http://www.w3.org/TR/2001/REC-SVG-20010904/DTD/svg10.dtd">
<svg version="1.0" xmlns="http://www.w3.org/2000/svg"
 width="260.000000pt" height="260.000000pt" viewBox="0 0 260.000000 260.000000"
 preserveAspectRatio="xMidYMid meet">
<metadata>
Created by potrace 1.14, written by Peter Selinger 2001-2017
</metadata>
<g transform="translate(0.000000,260.000000) scale(0.100000,-0.100000)"
fill="#000000" stroke="none">
<path d="M1180 1603 c-24 -9 -49 -20 -55 -25 -5 -4 -37 -26 -70 -46 -108 -69
-176 -155 -202 -256 -41 -159 23 -268 157 -269 117 -2 220 89 236 207 8 57 -8
105 -50 145 -33 32 -37 33 -97 29 -35 -3 -65 -10 -67 -16 -5 -15 -32 -16 -32
-2 0 9 129 141 161 165 8 6 33 22 57 35 43 24 56 51 25 49 -10 0 -38 -8 -63
-16z m-84 -288 c28 -24 29 -28 29 -114 0 -86 -1 -91 -29 -120 -39 -41 -83 -42
-117 -3 -22 24 -24 35 -23 116 0 87 1 89 32 117 40 36 70 37 108 4z"/>
<path d="M1416 1601 c-28 -6 -30 -9 -33 -65 -2 -32 -8 -77 -14 -100 -6 -22
-17 -77 -25 -121 -8 -44 -19 -88 -24 -97 -5 -10 -13 -42 -16 -71 -8 -64 -5
-66 103 -74 101 -8 132 7 210 100 18 23 33 87 33 147 0 83 -8 100 -53 120 -39
18 -42 18 -90 -1 -42 -17 -48 -17 -43 -4 3 9 9 51 12 95 8 88 9 86 -60 71z
m122 -243 c29 -29 -3 -156 -49 -201 -23 -21 -35 -26 -57 -21 -15 4 -29 8 -31
10 -2 2 3 27 12 56 8 29 18 70 22 90 4 27 14 42 38 57 37 24 48 26 65 9z"/>
<path d="M1813 1598 c-29 -14 -31 -67 -5 -91 45 -41 111 -1 96 57 -10 42 -47
55 -91 34z"/>
<path d="M708 1556 c-47 -24 -95 -52 -105 -60 -58 -51 -123 -113 -123 -119 0
-4 -11 -24 -24 -45 -59 -89 -56 -241 5 -302 35 -34 79 -45 160 -37 68 6 123
43 166 110 56 89 32 220 -47 254 -34 15 -92 10 -142 -11 -31 -14 -7 35 41 83
64 64 101 93 155 121 25 14 45 29 43 35 -8 22 -46 13 -129 -29z m-33 -271 c43
-42 36 -177 -10 -228 -38 -40 -86 -38 -117 6 -19 26 -23 45 -23 103 0 77 16
121 50 135 38 15 75 10 100 -16z"/>
<path d="M2027 1537 c-21 -8 -30 -21 -39 -54 -8 -32 -15 -43 -29 -43 -11 0
-19 -6 -19 -14 0 -8 -3 -21 -6 -30 -4 -11 -1 -16 11 -16 14 0 16 -6 12 -29 -3
-15 -9 -51 -13 -80 -4 -28 -11 -54 -15 -57 -5 -3 -9 -31 -9 -63 0 -52 2 -59
25 -69 29 -13 104 -16 121 -4 6 4 13 17 16 30 5 19 2 22 -23 22 -17 0 -32 6
-35 15 -7 18 25 206 38 222 5 6 24 13 41 15 22 2 35 11 44 28 12 24 12 25 -28
28 l-41 3 5 37 c3 20 8 45 12 55 6 13 2 17 -16 16 -13 -1 -37 -6 -52 -12z"/>
<path d="M1810 1441 c-38 -7 -38 -8 -76 -211 -9 -47 -20 -95 -26 -107 -17 -35
-4 -53 41 -53 46 0 47 2 72 120 9 47 22 103 27 125 6 22 13 61 17 88 7 51 9
50 -55 38z"/>
</g>
</svg>
